<svg xmlns="http://www.w3.org/2000/svg" width="32" height="32"><path d="m14 1 7 1c1.125 5.75 1.125 5.75 0 8l1.898-.07 2.477-.055 2.46-.07C30 10 30 10 32 12c.716 6.678-.838 12.08-4 18-2.714 1.357-4.848 1.112-7.883 1.098l-3.535-.01-3.707-.026-3.73-.013C6.096 31.037 3.048 31.019 0 31V12l8-1c2.21-2.207 2.21-2.207 3.5-5.063l1.469-2.785L14 1Zm2 5c-3.312 3.322-4.884 6.775-5.324 11.426.01 3.193.158 6.385.324 9.574h13l2-4.25 1.125-2.39c1.107-2.566 1.107-2.566.875-6.36l-11-1 1-7h-2ZM4 16v11h3V16H4Z"/></svg>