<svg xmlns="http://www.w3.org/2000/svg" width="32" height="32"><path d="M23.19 1.13C27.42 3.94 30.36 7.08 32 12c.37 5.62.22 9.18-3 14-3.93 3.98-7.14 5.88-12.81 6.25-4.72-.09-8.2-1.29-11.64-4.68-3.82-4.4-4.87-7.7-4.76-13.52C.27 9.32 2.52 6.22 6 3.2c5.41-3.95 11-4.25 17.19-2.06ZM5.12 10.38C3.75 13.6 3.5 15.52 4 19c2.29 4.32 4.47 7.06 9 9 3.93.58 5.65.18 9.19-1.69 3.78-3.1 5.52-5.38 6.25-10.25-.7-4.91-2.96-7.9-6.82-10.93-6.92-2.97-11.97-.49-16.5 5.25Z"/><path d="M9 20h14v4H9v-4ZM21 9l3 1 1 3-4 2-2-4 2-2ZM10 9l3 2-2 4-4-2 1-3 2-1Z"/></svg>